<mxfile host="app.diagrams.net" modified="2024-04-26T05:36:19.289Z" agent="Mozilla/5.0 (Windows NT 10.0; Win64; x64; rv:125.0) Gecko/20100101 Firefox/125.0" etag="NPROs0PFiBUNyyu5AfXD" version="24.3.0" type="github">
  <diagram name="Page-1" id="2YBvvXClWsGukQMizWep">
    <mxGraphModel dx="1750" dy="805" grid="1" gridSize="10" guides="1" tooltips="1" connect="1" arrows="1" fold="1" page="1" pageScale="1" pageWidth="850" pageHeight="1100" math="0" shadow="0">
      <root>
        <mxCell id="0" />
        <mxCell id="1" parent="0" />
        <mxCell id="aM9ryv3xv72pqoxQDRHE-1" value=":Website-PostThread" style="shape=umlLifeline;perimeter=lifelinePerimeter;whiteSpace=wrap;html=1;container=0;dropTarget=0;collapsible=0;recursiveResize=0;outlineConnect=0;portConstraint=eastwest;newEdgeStyle={&quot;edgeStyle&quot;:&quot;elbowEdgeStyle&quot;,&quot;elbow&quot;:&quot;vertical&quot;,&quot;curved&quot;:0,&quot;rounded&quot;:0};fillColor=#dae8fc;strokeColor=#6c8ebf;" parent="1" vertex="1">
          <mxGeometry x="40" y="40" width="100" height="520" as="geometry" />
        </mxCell>
        <mxCell id="aM9ryv3xv72pqoxQDRHE-2" value="" style="html=1;points=[];perimeter=orthogonalPerimeter;outlineConnect=0;targetShapes=umlLifeline;portConstraint=eastwest;newEdgeStyle={&quot;edgeStyle&quot;:&quot;elbowEdgeStyle&quot;,&quot;elbow&quot;:&quot;vertical&quot;,&quot;curved&quot;:0,&quot;rounded&quot;:0};" parent="aM9ryv3xv72pqoxQDRHE-1" vertex="1">
          <mxGeometry x="45" y="70" width="10" height="420" as="geometry" />
        </mxCell>
        <mxCell id="aM9ryv3xv72pqoxQDRHE-3" value="open()" style="html=1;verticalAlign=bottom;startArrow=oval;endArrow=block;startSize=8;edgeStyle=elbowEdgeStyle;elbow=vertical;curved=0;rounded=0;" parent="aM9ryv3xv72pqoxQDRHE-1" target="aM9ryv3xv72pqoxQDRHE-2" edge="1">
          <mxGeometry relative="1" as="geometry">
            <mxPoint x="-15" y="70" as="sourcePoint" />
          </mxGeometry>
        </mxCell>
        <mxCell id="aM9ryv3xv72pqoxQDRHE-4" value="" style="html=1;points=[];perimeter=orthogonalPerimeter;outlineConnect=0;targetShapes=umlLifeline;portConstraint=eastwest;newEdgeStyle={&quot;edgeStyle&quot;:&quot;elbowEdgeStyle&quot;,&quot;elbow&quot;:&quot;vertical&quot;,&quot;curved&quot;:0,&quot;rounded&quot;:0};" parent="aM9ryv3xv72pqoxQDRHE-1" vertex="1">
          <mxGeometry x="50" y="90" width="10" height="340" as="geometry" />
        </mxCell>
        <mxCell id="aM9ryv3xv72pqoxQDRHE-5" value=":Backend-CommentController" style="shape=umlLifeline;perimeter=lifelinePerimeter;whiteSpace=wrap;html=1;container=0;dropTarget=0;collapsible=0;recursiveResize=0;outlineConnect=0;portConstraint=eastwest;newEdgeStyle={&quot;edgeStyle&quot;:&quot;elbowEdgeStyle&quot;,&quot;elbow&quot;:&quot;vertical&quot;,&quot;curved&quot;:0,&quot;rounded&quot;:0};fillColor=#f8cecc;strokeColor=#b85450;" parent="1" vertex="1">
          <mxGeometry x="340" y="40" width="130" height="520" as="geometry" />
        </mxCell>
        <mxCell id="aM9ryv3xv72pqoxQDRHE-6" value="" style="html=1;points=[];perimeter=orthogonalPerimeter;outlineConnect=0;targetShapes=umlLifeline;portConstraint=eastwest;newEdgeStyle={&quot;edgeStyle&quot;:&quot;elbowEdgeStyle&quot;,&quot;elbow&quot;:&quot;vertical&quot;,&quot;curved&quot;:0,&quot;rounded&quot;:0};" parent="aM9ryv3xv72pqoxQDRHE-5" vertex="1">
          <mxGeometry x="60" y="120" width="10" height="260" as="geometry" />
        </mxCell>
        <mxCell id="TAI8UmMMrCqLJN9rqpbE-1" value=":Backend-CommentService" style="shape=umlLifeline;perimeter=lifelinePerimeter;whiteSpace=wrap;html=1;container=0;dropTarget=0;collapsible=0;recursiveResize=0;outlineConnect=0;portConstraint=eastwest;newEdgeStyle={&quot;edgeStyle&quot;:&quot;elbowEdgeStyle&quot;,&quot;elbow&quot;:&quot;vertical&quot;,&quot;curved&quot;:0,&quot;rounded&quot;:0};fillColor=#f8cecc;strokeColor=#b85450;" vertex="1" parent="1">
          <mxGeometry x="571" y="40" width="130" height="520" as="geometry" />
        </mxCell>
        <mxCell id="TAI8UmMMrCqLJN9rqpbE-2" value="" style="html=1;points=[];perimeter=orthogonalPerimeter;outlineConnect=0;targetShapes=umlLifeline;portConstraint=eastwest;newEdgeStyle={&quot;edgeStyle&quot;:&quot;elbowEdgeStyle&quot;,&quot;elbow&quot;:&quot;vertical&quot;,&quot;curved&quot;:0,&quot;rounded&quot;:0};" vertex="1" parent="TAI8UmMMrCqLJN9rqpbE-1">
          <mxGeometry x="60" y="130" width="10" height="230" as="geometry" />
        </mxCell>
        <mxCell id="TAI8UmMMrCqLJN9rqpbE-3" value=":Backend-CommentRepository" style="shape=umlLifeline;perimeter=lifelinePerimeter;whiteSpace=wrap;html=1;container=0;dropTarget=0;collapsible=0;recursiveResize=0;outlineConnect=0;portConstraint=eastwest;newEdgeStyle={&quot;edgeStyle&quot;:&quot;elbowEdgeStyle&quot;,&quot;elbow&quot;:&quot;vertical&quot;,&quot;curved&quot;:0,&quot;rounded&quot;:0};fillColor=#f8cecc;strokeColor=#b85450;" vertex="1" parent="1">
          <mxGeometry x="761" y="40" width="130" height="520" as="geometry" />
        </mxCell>
        <mxCell id="TAI8UmMMrCqLJN9rqpbE-4" value="" style="html=1;points=[];perimeter=orthogonalPerimeter;outlineConnect=0;targetShapes=umlLifeline;portConstraint=eastwest;newEdgeStyle={&quot;edgeStyle&quot;:&quot;elbowEdgeStyle&quot;,&quot;elbow&quot;:&quot;vertical&quot;,&quot;curved&quot;:0,&quot;rounded&quot;:0};" vertex="1" parent="TAI8UmMMrCqLJN9rqpbE-3">
          <mxGeometry x="60" y="180" width="10" height="90" as="geometry" />
        </mxCell>
        <mxCell id="TAI8UmMMrCqLJN9rqpbE-5" value=":Database-CommentTable" style="shape=umlLifeline;perimeter=lifelinePerimeter;whiteSpace=wrap;html=1;container=0;dropTarget=0;collapsible=0;recursiveResize=0;outlineConnect=0;portConstraint=eastwest;newEdgeStyle={&quot;edgeStyle&quot;:&quot;elbowEdgeStyle&quot;,&quot;elbow&quot;:&quot;vertical&quot;,&quot;curved&quot;:0,&quot;rounded&quot;:0};fillColor=#fff2cc;strokeColor=#d6b656;" vertex="1" parent="1">
          <mxGeometry x="941" y="40" width="130" height="520" as="geometry" />
        </mxCell>
        <mxCell id="TAI8UmMMrCqLJN9rqpbE-6" value="" style="html=1;points=[];perimeter=orthogonalPerimeter;outlineConnect=0;targetShapes=umlLifeline;portConstraint=eastwest;newEdgeStyle={&quot;edgeStyle&quot;:&quot;elbowEdgeStyle&quot;,&quot;elbow&quot;:&quot;vertical&quot;,&quot;curved&quot;:0,&quot;rounded&quot;:0};" vertex="1" parent="TAI8UmMMrCqLJN9rqpbE-5">
          <mxGeometry x="60" y="200" width="10" height="50" as="geometry" />
        </mxCell>
        <mxCell id="TAI8UmMMrCqLJN9rqpbE-7" value="" style="endArrow=classic;html=1;rounded=0;" edge="1" parent="1" target="aM9ryv3xv72pqoxQDRHE-4">
          <mxGeometry width="50" height="50" relative="1" as="geometry">
            <mxPoint x="95.00000000000011" y="120" as="sourcePoint" />
            <mxPoint x="170" y="120" as="targetPoint" />
            <Array as="points">
              <mxPoint x="130" y="120" />
              <mxPoint x="130" y="130" />
            </Array>
          </mxGeometry>
        </mxCell>
        <mxCell id="TAI8UmMMrCqLJN9rqpbE-9" value="createComment()" style="edgeLabel;html=1;align=center;verticalAlign=middle;resizable=0;points=[];" vertex="1" connectable="0" parent="TAI8UmMMrCqLJN9rqpbE-7">
          <mxGeometry x="0.0606" y="-1" relative="1" as="geometry">
            <mxPoint x="24" y="-5" as="offset" />
          </mxGeometry>
        </mxCell>
        <mxCell id="TAI8UmMMrCqLJN9rqpbE-10" style="edgeStyle=elbowEdgeStyle;rounded=0;orthogonalLoop=1;jettySize=auto;html=1;elbow=vertical;curved=0;" edge="1" parent="1">
          <mxGeometry relative="1" as="geometry">
            <mxPoint x="100.00000000000011" y="159.99806451612903" as="sourcePoint" />
            <mxPoint x="400" y="160" as="targetPoint" />
          </mxGeometry>
        </mxCell>
        <mxCell id="TAI8UmMMrCqLJN9rqpbE-11" value="PostRequest(CommentProposal)" style="edgeLabel;html=1;align=center;verticalAlign=middle;resizable=0;points=[];" vertex="1" connectable="0" parent="TAI8UmMMrCqLJN9rqpbE-10">
          <mxGeometry x="-0.5819" y="1" relative="1" as="geometry">
            <mxPoint x="52" y="1" as="offset" />
          </mxGeometry>
        </mxCell>
        <mxCell id="TAI8UmMMrCqLJN9rqpbE-15" value="" style="endArrow=classic;html=1;rounded=0;" edge="1" parent="1" source="aM9ryv3xv72pqoxQDRHE-6">
          <mxGeometry width="50" height="50" relative="1" as="geometry">
            <mxPoint x="524" y="170" as="sourcePoint" />
            <mxPoint x="630" y="170" as="targetPoint" />
          </mxGeometry>
        </mxCell>
        <mxCell id="TAI8UmMMrCqLJN9rqpbE-16" value="createComment(CommentProposal)" style="edgeLabel;html=1;align=center;verticalAlign=middle;resizable=0;points=[];" vertex="1" connectable="0" parent="TAI8UmMMrCqLJN9rqpbE-15">
          <mxGeometry x="-0.5145" relative="1" as="geometry">
            <mxPoint x="52" y="-1" as="offset" />
          </mxGeometry>
        </mxCell>
        <mxCell id="TAI8UmMMrCqLJN9rqpbE-19" value="" style="endArrow=classic;html=1;rounded=0;" edge="1" parent="1" target="TAI8UmMMrCqLJN9rqpbE-2">
          <mxGeometry width="50" height="50" relative="1" as="geometry">
            <mxPoint x="641.0000000000001" y="190" as="sourcePoint" />
            <mxPoint x="646" y="200" as="targetPoint" />
            <Array as="points">
              <mxPoint x="676" y="190" />
              <mxPoint x="676" y="200" />
            </Array>
          </mxGeometry>
        </mxCell>
        <mxCell id="TAI8UmMMrCqLJN9rqpbE-20" value="mapCommentProposalToModel(CommentProposal)" style="edgeLabel;html=1;align=center;verticalAlign=middle;resizable=0;points=[];" vertex="1" connectable="0" parent="TAI8UmMMrCqLJN9rqpbE-19">
          <mxGeometry x="-0.0338" y="-2" relative="1" as="geometry">
            <mxPoint x="108" y="-8" as="offset" />
          </mxGeometry>
        </mxCell>
        <mxCell id="TAI8UmMMrCqLJN9rqpbE-21" value="" style="endArrow=classic;html=1;rounded=0;" edge="1" parent="1">
          <mxGeometry width="50" height="50" relative="1" as="geometry">
            <mxPoint x="640.9992592592594" y="220" as="sourcePoint" />
            <mxPoint x="821" y="220" as="targetPoint" />
          </mxGeometry>
        </mxCell>
        <mxCell id="TAI8UmMMrCqLJN9rqpbE-22" value="saveOrUpdate(Model)" style="edgeLabel;html=1;align=center;verticalAlign=middle;resizable=0;points=[];" vertex="1" connectable="0" parent="TAI8UmMMrCqLJN9rqpbE-21">
          <mxGeometry x="-0.5518" relative="1" as="geometry">
            <mxPoint x="47" y="-1" as="offset" />
          </mxGeometry>
        </mxCell>
        <mxCell id="TAI8UmMMrCqLJN9rqpbE-23" value="" style="endArrow=classic;html=1;rounded=0;" edge="1" parent="1">
          <mxGeometry width="50" height="50" relative="1" as="geometry">
            <mxPoint x="831" y="240" as="sourcePoint" />
            <mxPoint x="1001" y="240" as="targetPoint" />
          </mxGeometry>
        </mxCell>
        <mxCell id="TAI8UmMMrCqLJN9rqpbE-24" value="insertIntoComment(Model)" style="edgeLabel;html=1;align=center;verticalAlign=middle;resizable=0;points=[];" vertex="1" connectable="0" parent="TAI8UmMMrCqLJN9rqpbE-23">
          <mxGeometry x="-0.2647" y="1" relative="1" as="geometry">
            <mxPoint x="18" y="1" as="offset" />
          </mxGeometry>
        </mxCell>
        <mxCell id="TAI8UmMMrCqLJN9rqpbE-26" value="" style="endArrow=classic;html=1;rounded=0;dashed=1;" edge="1" parent="1">
          <mxGeometry width="50" height="50" relative="1" as="geometry">
            <mxPoint x="1005.5000000000002" y="290" as="sourcePoint" />
            <mxPoint x="831" y="290" as="targetPoint" />
            <Array as="points" />
          </mxGeometry>
        </mxCell>
        <mxCell id="TAI8UmMMrCqLJN9rqpbE-27" value="return modelWithId" style="edgeLabel;html=1;align=center;verticalAlign=middle;resizable=0;points=[];" vertex="1" connectable="0" parent="TAI8UmMMrCqLJN9rqpbE-26">
          <mxGeometry x="0.4443" y="1" relative="1" as="geometry">
            <mxPoint x="40" y="-3" as="offset" />
          </mxGeometry>
        </mxCell>
        <mxCell id="TAI8UmMMrCqLJN9rqpbE-28" value="" style="endArrow=classic;html=1;rounded=0;dashed=1;" edge="1" parent="1" target="TAI8UmMMrCqLJN9rqpbE-2">
          <mxGeometry width="50" height="50" relative="1" as="geometry">
            <mxPoint x="821.0000000000002" y="309.68" as="sourcePoint" />
            <mxPoint x="646.5" y="309.68" as="targetPoint" />
            <Array as="points" />
          </mxGeometry>
        </mxCell>
        <mxCell id="TAI8UmMMrCqLJN9rqpbE-29" value="return model" style="edgeLabel;html=1;align=center;verticalAlign=middle;resizable=0;points=[];" vertex="1" connectable="0" parent="TAI8UmMMrCqLJN9rqpbE-28">
          <mxGeometry x="0.4443" y="1" relative="1" as="geometry">
            <mxPoint x="40" y="-2" as="offset" />
          </mxGeometry>
        </mxCell>
        <mxCell id="TAI8UmMMrCqLJN9rqpbE-30" value="" style="endArrow=classic;html=1;rounded=0;" edge="1" parent="1">
          <mxGeometry width="50" height="50" relative="1" as="geometry">
            <mxPoint x="641.0000000000001" y="350" as="sourcePoint" />
            <mxPoint x="641" y="360" as="targetPoint" />
            <Array as="points">
              <mxPoint x="676" y="350" />
              <mxPoint x="676" y="360" />
            </Array>
          </mxGeometry>
        </mxCell>
        <mxCell id="TAI8UmMMrCqLJN9rqpbE-31" value="mapModelToThreadComment(model)" style="edgeLabel;html=1;align=center;verticalAlign=middle;resizable=0;points=[];" vertex="1" connectable="0" parent="TAI8UmMMrCqLJN9rqpbE-30">
          <mxGeometry x="-0.0338" y="-2" relative="1" as="geometry">
            <mxPoint x="61" y="-10" as="offset" />
          </mxGeometry>
        </mxCell>
        <mxCell id="TAI8UmMMrCqLJN9rqpbE-32" value="" style="endArrow=classic;html=1;rounded=0;dashed=1;" edge="1" parent="1">
          <mxGeometry width="50" height="50" relative="1" as="geometry">
            <mxPoint x="630" y="400" as="sourcePoint" />
            <mxPoint x="410" y="400" as="targetPoint" />
            <Array as="points" />
          </mxGeometry>
        </mxCell>
        <mxCell id="TAI8UmMMrCqLJN9rqpbE-33" value="return threadComment" style="edgeLabel;html=1;align=center;verticalAlign=middle;resizable=0;points=[];" vertex="1" connectable="0" parent="TAI8UmMMrCqLJN9rqpbE-32">
          <mxGeometry x="0.4443" y="1" relative="1" as="geometry">
            <mxPoint x="40" y="-2" as="offset" />
          </mxGeometry>
        </mxCell>
        <mxCell id="TAI8UmMMrCqLJN9rqpbE-34" value="" style="endArrow=classic;html=1;rounded=0;dashed=1;" edge="1" parent="1" target="aM9ryv3xv72pqoxQDRHE-4">
          <mxGeometry width="50" height="50" relative="1" as="geometry">
            <mxPoint x="400" y="420" as="sourcePoint" />
            <mxPoint x="280" y="420" as="targetPoint" />
            <Array as="points" />
          </mxGeometry>
        </mxCell>
        <mxCell id="TAI8UmMMrCqLJN9rqpbE-35" value="return HTTP-Response(threadComment)" style="edgeLabel;html=1;align=center;verticalAlign=middle;resizable=0;points=[];" vertex="1" connectable="0" parent="TAI8UmMMrCqLJN9rqpbE-34">
          <mxGeometry x="0.4443" y="1" relative="1" as="geometry">
            <mxPoint x="42" y="-2" as="offset" />
          </mxGeometry>
        </mxCell>
        <mxCell id="TAI8UmMMrCqLJN9rqpbE-39" value="" style="endArrow=classic;html=1;rounded=0;" edge="1" parent="1">
          <mxGeometry width="50" height="50" relative="1" as="geometry">
            <mxPoint x="100.00000000000011" y="440" as="sourcePoint" />
            <mxPoint x="100" y="450" as="targetPoint" />
            <Array as="points">
              <mxPoint x="135" y="440" />
              <mxPoint x="135" y="450" />
            </Array>
          </mxGeometry>
        </mxCell>
        <mxCell id="TAI8UmMMrCqLJN9rqpbE-40" value="rerender()" style="edgeLabel;html=1;align=center;verticalAlign=middle;resizable=0;points=[];" vertex="1" connectable="0" parent="TAI8UmMMrCqLJN9rqpbE-39">
          <mxGeometry x="-0.0338" y="-2" relative="1" as="geometry">
            <mxPoint x="17" y="-6" as="offset" />
          </mxGeometry>
        </mxCell>
        <mxCell id="TAI8UmMMrCqLJN9rqpbE-41" value="" style="endArrow=classic;html=1;rounded=0;dashed=1;" edge="1" parent="1" target="aM9ryv3xv72pqoxQDRHE-2">
          <mxGeometry width="50" height="50" relative="1" as="geometry">
            <mxPoint x="100.00000000000011" y="470" as="sourcePoint" />
            <mxPoint x="100" y="480" as="targetPoint" />
            <Array as="points">
              <mxPoint x="135" y="470" />
              <mxPoint x="135" y="480" />
            </Array>
          </mxGeometry>
        </mxCell>
        <mxCell id="TAI8UmMMrCqLJN9rqpbE-43" value="&amp;lt;&amp;lt;Comment created successfully&amp;gt;&amp;gt;" style="edgeLabel;html=1;align=center;verticalAlign=middle;resizable=0;points=[];" vertex="1" connectable="0" parent="TAI8UmMMrCqLJN9rqpbE-41">
          <mxGeometry x="-0.0481" relative="1" as="geometry">
            <mxPoint x="76" y="-3" as="offset" />
          </mxGeometry>
        </mxCell>
        <mxCell id="TAI8UmMMrCqLJN9rqpbE-44" value="Create a Comment - Component Interaction" style="shape=umlFrame;whiteSpace=wrap;html=1;pointerEvents=0;width=280;height=30;" vertex="1" parent="1">
          <mxGeometry width="1110" height="580" as="geometry" />
        </mxCell>
      </root>
    </mxGraphModel>
  </diagram>
</mxfile>
